<svg xmlns="http://www.w3.org/2000/svg" viewBox="0 0 511.999 511.999" style="enable-background:new 0 0 511.999 511.999" fill = "#ea5455" xml:space="preserve"><path  d="M53.435 438.645c-15.518 0-31.139-3.312-45.747-10.133a13.328 13.328 0 0 1-3.414-21.857c1.623-1.502 2.912-2.767 4.056-3.981 21.623-22.945 28.138-55.548 17.004-85.083a13.44 13.44 0 0 1-.741-2.948c-8.299-20.76-12.504-42.703-12.504-65.277 0-97.071 78.975-176.044 176.046-176.044 7.36 0 13.328 5.967 13.328 13.328s-5.968 13.328-13.328 13.328c-82.375 0-149.39 67.015-149.39 149.389 0 20.217 3.966 39.822 11.79 58.271.56 1.319.896 2.703 1.012 4.098 11.45 33.766 5.767 70.149-14.925 98.517 26.639 5.607 55.008-2.375 74.783-22.132a13.329 13.329 0 0 1 14.939-2.703c19.456 8.851 40.244 13.339 61.791 13.339 7.36 0 13.328 5.967 13.328 13.328s-5.968 13.328-13.328 13.328c-22.382 0-44.082-4.116-64.632-12.247-19.834 16.701-44.808 25.479-70.068 25.479z"/><path fill = "rgba(234,84,85,.82)" d="M493.972 411.816c-25.786-27.362-32.203-65.967-19.777-98.926l-.458-.051c8.271-19.504 12.847-40.954 12.847-63.473 0-89.866-72.852-162.718-162.718-162.718-24.225 0-47.207 5.302-67.866 14.795 55.977 25.724 94.851 82.28 94.851 147.923 0 65.641-38.874 122.198-94.851 147.923 20.658 9.493 43.642 14.795 67.866 14.795 24.006 0 46.796-5.202 67.309-14.535 28.922 28.895 72.132 35.403 107.496 18.887-1.602-1.484-3.18-3.008-4.699-4.62z"/><path d="M458.408 438.678c-.002 0 0 0 0 0-25.899 0-50.397-8.996-69.921-25.511-20.548 8.129-42.243 12.243-64.622 12.243-25.606 0-50.31-5.387-73.432-16.012a13.327 13.327 0 0 1 0-24.22c52.904-24.313 87.09-77.622 87.09-135.813s-34.183-111.5-87.09-135.811a13.327 13.327 0 0 1 0-24.22c23.121-10.625 47.827-16.012 73.432-16.012 97.073 0 176.046 78.973 176.046 176.044 0 22.575-4.205 44.518-12.504 65.277a13.364 13.364 0 0 1-.741 2.949c-11.134 29.535-4.619 62.137 17.005 85.084 1.142 1.211 2.431 2.476 4.054 3.978a13.33 13.33 0 0 1-3.414 21.858c-14.242 6.65-30.117 10.166-45.903 10.166zm-67.237-54.459c3.463 0 6.869 1.349 9.423 3.9 15.428 15.414 35.96 23.904 57.813 23.904 5.691 0 11.393-.604 16.965-1.781-20.686-28.368-26.367-64.747-14.918-98.508a13.318 13.318 0 0 1 1.012-4.098c7.823-18.449 11.79-38.054 11.79-58.271 0-82.373-67.015-149.389-149.39-149.389-12.27 0-24.293 1.455-35.964 4.344 47.113 32.507 76.278 86.691 76.278 145.045s-29.168 112.538-76.278 145.045c11.673 2.888 23.694 4.345 35.964 4.345 21.547 0 42.336-4.488 61.79-13.339a13.318 13.318 0 0 1 5.515-1.197z"/><path d="M259.996 209.289H111.611c-7.36 0-13.328-5.967-13.328-13.328s5.968-13.328 13.328-13.328h148.385c7.36 0 13.328 5.967 13.328 13.328s-5.967 13.328-13.328 13.328zM259.996 266.403H111.611c-7.36 0-13.328-5.967-13.328-13.328s5.968-13.328 13.328-13.328h148.385c7.36 0 13.328 5.967 13.328 13.328s-5.967 13.328-13.328 13.328zM200.02 323.518h-88.409c-7.36 0-13.328-5.967-13.328-13.328s5.968-13.328 13.328-13.328h88.409c7.36 0 13.328 5.967 13.328 13.328s-5.967 13.328-13.328 13.328z"/></svg>