<svg xmlns="http://www.w3.org/2000/svg" width="885" height="885" viewBox="0 0 885 885">
  <g id="payment_left" transform="translate(-460 -113)">
    <rect id="Rectangle_1" data-name="Rectangle 1" width="885" height="885" transform="translate(460 113)" fill="none"/>
    <g id="Group_1" data-name="Group 1" transform="translate(-633 -27)">
      <g id="payment.min" transform="translate(1097 335)">
        <path id="path2" d="M152,200a64,64,0,1,0,64,64A64.075,64.075,0,0,0,152,200Zm0,112a48,48,0,1,1,48-48A48.048,48.048,0,0,1,152,312Z" fill="#ea5455"/>
        <path id="path4" d="M160,232.408V224H144v8.408A20,20,0,0,0,148,272h8a4,4,0,0,1,0,8h-8a4.012,4.012,0,0,1-4-4v-4H128v4a20.019,20.019,0,0,0,16,19.592V304h16v-8.408A20,20,0,0,0,156,256h-8a4,4,0,0,1,0-8h8a4.012,4.012,0,0,1,4,4v4h16v-4A20.019,20.019,0,0,0,160,232.408Zm152-40.816V200h16v-8.408A20,20,0,0,0,324,152h-8a4,4,0,0,1,0-8h8a4.012,4.012,0,0,1,4,4v4h16v-4a20.019,20.019,0,0,0-16-19.592V120H312v8.408A20,20,0,0,0,316,168h8a4,4,0,0,1,0,8h-8a4.012,4.012,0,0,1-4-4v-4H296v4A20.019,20.019,0,0,0,312,191.592ZM208,128a64,64,0,1,0-64-64A64.075,64.075,0,0,0,208,128Zm0-112a48,48,0,1,1-48,48A48.048,48.048,0,0,1,208,16Z" fill="#ea5455"/>
        <path id="path6" d="M200,95.592V104h16V95.592A20,20,0,0,0,212,56h-8a4,4,0,0,1,0-8h8a4.012,4.012,0,0,1,4,4v4h16V52a20.019,20.019,0,0,0-16-19.592V24H200v8.408A20,20,0,0,0,204,72h8a4,4,0,0,1,0,8h-8a4.012,4.012,0,0,1-4-4V72H184v4a20.019,20.019,0,0,0,16,19.592ZM464,287.968H440V216a40.045,40.045,0,0,0-40-40H381.9A64,64,0,1,0,258.1,176H96a40.045,40.045,0,0,0-40,40V408a40.045,40.045,0,0,0,40,40h72v32H152v16H344V480H328V448h72a40.045,40.045,0,0,0,40-40V367.952l9.12.016L464,363.04v12.928h32v-16H480v-72h16v-16H464v16ZM320,112a48,48,0,1,1-48,48A48.048,48.048,0,0,1,320,112Zm-8,368H184V448H312Zm112-72a24.029,24.029,0,0,1-24,24H96a24.029,24.029,0,0,1-24-24v-8H424Zm0-24H72V216a24.029,24.029,0,0,1,24-24H264.656a63.859,63.859,0,0,0,110.688,0H400a24.029,24.029,0,0,1,24,24v70.472l-19.736-13.16L336.84,249.4a24.715,24.715,0,0,0-19.784,45.144l17.312,9.2-25.184.08L298.84,277.936A22.248,22.248,0,0,0,257.1,293.312l2.416,7.176L241.968,290.9a22.97,22.97,0,0,0-31.928,10.688,22.868,22.868,0,0,0,10.76,30.064l39.488,19.488,81.968,16.672,81.744.128V384ZM291.968,303.88l-14.408.048-5.3-15.72a6.2,6.2,0,0,1,.848-5.64c2.688-3.76,9.16-2.944,10.864,1.32l7.992,19.992ZM464,346.192l-17.464,5.776H344.616l-78.184-15.64-38.544-19.016a6.969,6.969,0,0,1,.888-12.856,6.745,6.745,0,0,1,5.536.5l27.48,15.016h75.936l31.56-15.784-44.72-23.776a8.72,8.72,0,0,1,6.992-15.92l64.68,22.7,25.176,16.784H464v42.224ZM32,88H48v16H32ZM17.39,116.69,6.078,105.378,17.392,94.065,28.7,105.378ZM0,120H16v16H0Zm17.386,41.934L6.072,150.621l11.314-11.314L28.7,150.621ZM32,152H48v16H32Zm30.622-12.69,11.313,11.313L62.622,161.937,51.308,150.623ZM64,120H80v16H64ZM62.626,94.059,73.94,105.373,62.626,116.686,51.313,105.373ZM448,16h16V32H448Zm-14.644,6.07L444.67,33.384,433.356,44.7,422.043,33.384ZM416,48h16V64H416Zm17.363,41.923L422.05,78.609,433.363,67.3l11.314,11.313ZM448,80h16V96H448Zm30.613-12.717L489.927,78.6,478.613,89.91,467.3,78.6ZM480,48h16V64H480Zm-1.382-25.936,11.314,11.314L478.618,44.691,467.3,33.378Z" fill="#ea5455"/>
      </g>
    </g>
  </g>
</svg>
