<?xml version="1.0" encoding="UTF-8" standalone="no"?>
<svg
   xmlns:dc="http://purl.org/dc/elements/1.1/"
   xmlns:cc="http://creativecommons.org/ns#"
   xmlns:rdf="http://www.w3.org/1999/02/22-rdf-syntax-ns#"
   xmlns:svg="http://www.w3.org/2000/svg"
   xmlns="http://www.w3.org/2000/svg"
   xmlns:sodipodi="http://sodipodi.sourceforge.net/DTD/sodipodi-0.dtd"
   xmlns:inkscape="http://www.inkscape.org/namespaces/inkscape"
   viewBox="0 0 496 496"
   style="enable-background:new 0 0 496 496"
   xml:space="preserve"
   version="1.1"
   id="svg8"
   sodipodi:docname="payment.min.svg"
   inkscape:version="1.0.2 (e86c870879, 2021-01-15)"><metadata
     id="metadata14"><rdf:RDF><cc:Work
         rdf:about=""><dc:format>image/svg+xml</dc:format><dc:type
           rdf:resource="http://purl.org/dc/dcmitype/StillImage" /></cc:Work></rdf:RDF></metadata><defs
     id="defs12" /><sodipodi:namedview
     pagecolor="#ffffff"
     bordercolor="#666666"
     borderopacity="1"
     objecttolerance="10"
     gridtolerance="10"
     guidetolerance="10"
     inkscape:pageopacity="0"
     inkscape:pageshadow="2"
     inkscape:window-width="1366"
     inkscape:window-height="713"
     id="namedview10"
     showgrid="false"
     inkscape:zoom="1.0541291"
     inkscape:cx="248"
     inkscape:cy="248"
     inkscape:window-x="0"
     inkscape:window-y="31"
     inkscape:window-maximized="1"
     inkscape:current-layer="svg8" /><path
     d="M152 200c-35.288 0-64 28.712-64 64s28.712 64 64 64 64-28.712 64-64-28.712-64-64-64zm0 112c-26.472 0-48-21.528-48-48s21.528-48 48-48 48 21.528 48 48-21.528 48-48 48z"
     id="path2"
     style="fill:#ea5455;fill-opacity:1" /><path
     d="M160 232.408V224h-16v8.408c-9.12 1.856-16 9.936-16 19.592 0 11.032 8.968 20 20 20h8c2.2 0 4 1.8 4 4s-1.8 4-4 4h-8c-2.2 0-4-1.8-4-4v-4h-16v4c0 9.664 6.88 17.736 16 19.592V304h16v-8.408c9.12-1.856 16-9.936 16-19.592 0-11.032-8.968-20-20-20h-8c-2.2 0-4-1.8-4-4s1.8-4 4-4h8c2.2 0 4 1.8 4 4v4h16v-4c0-9.664-6.88-17.736-16-19.592zM312 191.592V200h16v-8.408c9.12-1.856 16-9.936 16-19.592 0-11.032-8.968-20-20-20h-8c-2.2 0-4-1.8-4-4s1.8-4 4-4h8c2.2 0 4 1.8 4 4v4h16v-4c0-9.664-6.88-17.736-16-19.592V120h-16v8.408c-9.12 1.856-16 9.936-16 19.592 0 11.032 8.968 20 20 20h8c2.2 0 4 1.8 4 4s-1.8 4-4 4h-8c-2.2 0-4-1.8-4-4v-4h-16v4c0 9.664 6.88 17.736 16 19.592zM208 128c35.288 0 64-28.712 64-64S243.288 0 208 0s-64 28.712-64 64 28.712 64 64 64zm0-112c26.472 0 48 21.528 48 48s-21.528 48-48 48-48-21.528-48-48 21.528-48 48-48z"
     id="path4"
     style="fill:#ea5455;fill-opacity:1" /><path
     d="M200 95.592V104h16v-8.408c9.12-1.856 16-9.936 16-19.592 0-11.032-8.968-20-20-20h-8c-2.2 0-4-1.8-4-4s1.8-4 4-4h8c2.2 0 4 1.8 4 4v4h16v-4c0-9.664-6.88-17.736-16-19.592V24h-16v8.408c-9.12 1.856-16 9.936-16 19.592 0 11.032 8.968 20 20 20h8c2.2 0 4 1.8 4 4s-1.8 4-4 4h-8c-2.2 0-4-1.8-4-4v-4h-16v4c0 9.664 6.88 17.736 16 19.592zM464 287.968h-24V216c0-22.056-17.944-40-40-40h-18.104c1.328-5.128 2.104-10.464 2.104-16 0-35.288-28.712-64-64-64s-64 28.712-64 64c0 5.536.776 10.872 2.104 16H96c-22.056 0-40 17.944-40 40v192c0 22.056 17.944 40 40 40h72v32h-16v16h192v-16h-16v-32h72c22.056 0 40-17.944 40-40v-40.048l9.12.016L464 363.04v12.928h32v-16h-16v-72h16v-16h-32v16zM320 112c26.472 0 48 21.528 48 48s-21.528 48-48 48-48-21.528-48-48 21.528-48 48-48zm-8 368H184v-32h128v32zm112-72c0 13.232-10.768 24-24 24H96c-13.232 0-24-10.768-24-24v-8h352v8zm0-24H72V216c0-13.232 10.768-24 24-24h168.656c11.088 19.096 31.712 32 55.344 32s44.256-12.904 55.344-32H400c13.232 0 24 10.768 24 24v70.472l-19.736-13.16L336.84 249.4c-6.424-2.256-13.304-1.792-19.368 1.28-6.072 3.08-10.504 8.368-12.472 14.872-3.424 11.28 1.648 23.48 12.056 28.992l17.312 9.2-25.184.08-10.344-25.888c-3.4-8.496-11.504-13.976-20.656-13.976a22.296 22.296 0 0 0-18.064 9.264 22.317 22.317 0 0 0-3.016 20.088l2.416 7.176-17.552-9.592a23.1 23.1 0 0 0-18.28-1.624 23.047 23.047 0 0 0-13.648 12.312 22.868 22.868 0 0 0 10.76 30.064l39.488 19.488 81.968 16.672 81.744.128V384zm-132.032-80.12-14.408.048-5.296-15.72a6.202 6.202 0 0 1 .848-5.64c2.688-3.76 9.16-2.944 10.864 1.32l7.992 19.992zM464 346.192l-17.464 5.776h-101.92l-78.184-15.64-38.544-19.016a6.93 6.93 0 0 1-3.256-9.12 6.862 6.862 0 0 1 4.144-3.736 6.745 6.745 0 0 1 5.536.496l27.48 15.016h75.936l31.56-15.784-44.72-23.776c-3.664-1.944-5.456-6.24-4.24-10.216a8.623 8.623 0 0 1 4.4-5.248c2.144-1.08 4.56-1.232 6.832-.456l64.68 22.696 25.176 16.784H464v42.224zM32 88h16v16H32zM17.39 116.69 6.078 105.378l11.314-11.313 11.313 11.313zM0 120h16v16H0zM17.386 161.934 6.072 150.621l11.314-11.314L28.7 150.621zM32 152h16v16H32zM62.622 139.31l11.313 11.313-11.313 11.314-11.314-11.314zM64 120h16v16H64zM62.626 94.059l11.314 11.314-11.314 11.313-11.313-11.313zM448 16h16v16h-16zM433.356 22.07l11.314 11.314-11.314 11.314-11.313-11.314zM416 48h16v16h-16zM433.363 89.923 422.05 78.609l11.313-11.313 11.314 11.313zM448 80h16v16h-16zM478.613 67.283l11.314 11.314-11.314 11.313L467.3 78.597zM480 48h16v16h-16zM478.618 22.064l11.314 11.314-11.314 11.313-11.314-11.313z"
     id="path6"
     style="fill:#ea5455;fill-opacity:1" /></svg>
