<?xml version="1.0" encoding="UTF-8" standalone="no"?>
<svg
   xmlns:dc="http://purl.org/dc/elements/1.1/"
   xmlns:cc="http://creativecommons.org/ns#"
   xmlns:rdf="http://www.w3.org/1999/02/22-rdf-syntax-ns#"
   xmlns:svg="http://www.w3.org/2000/svg"
   xmlns="http://www.w3.org/2000/svg"
   xmlns:sodipodi="http://sodipodi.sourceforge.net/DTD/sodipodi-0.dtd"
   xmlns:inkscape="http://www.inkscape.org/namespaces/inkscape"
   width="964.8"
   height="964.8"
   style="enable-background:new 0 0 964.8 964.8"
   xml:space="preserve"
   version="1.1"
   id="svg6"
   sodipodi:docname="profile-search.min.svg"
   inkscape:version="1.0.2 (e86c870879, 2021-01-15)"><metadata
     id="metadata12"><rdf:RDF><cc:Work
         rdf:about=""><dc:format>image/svg+xml</dc:format><dc:type
           rdf:resource="http://purl.org/dc/dcmitype/StillImage" /><dc:title></dc:title></cc:Work></rdf:RDF></metadata><defs
     id="defs10" /><sodipodi:namedview
     pagecolor="#ffffff"
     bordercolor="#666666"
     borderopacity="1"
     objecttolerance="10"
     gridtolerance="10"
     guidetolerance="10"
     inkscape:pageopacity="0"
     inkscape:pageshadow="2"
     inkscape:window-width="1366"
     inkscape:window-height="713"
     id="namedview8"
     showgrid="false"
     inkscape:zoom="0.54192378"
     inkscape:cx="482.39999"
     inkscape:cy="482.39999"
     inkscape:window-x="0"
     inkscape:window-y="31"
     inkscape:window-maximized="1"
     inkscape:current-layer="svg6" /><path
     d="M166.48 328.9c4.4-5.6 8.9-11.1 13.6-16.4 6-6.9 12.3-13.7 18.9-20.2 23.7-23.7 49.9-44 78.4-60.9v-6.6c0-15.4-12.5-27.8-27.8-27.8h-30.9c-5.5 0-10.6 2.6-13.7 7.1l-45.6 64.5-11.1-23.4 17.7-37.2c2.4-5.1-1.3-11-6.9-11h-35.4c-5.6 0-9.4 5.9-6.9 11l17.7 37.2-10.9 23-44.5-63.9c-3.1-4.5-8.3-7.3-13.8-7.3h-32.5c-15.4 0-27.8 12.5-27.8 27.8v184.9h112.7c13.1-28.9 29.401-55.9 48.8-80.8zM51.48 89.6c0 49.4 40.2 89.6 89.6 89.6s89.6-40.2 89.6-89.6c0-49.4-40.2-89.6-89.6-89.6s-89.6 40.2-89.6 89.6zM896.28 197c-5.5 0-10.6 2.6-13.7 7.1l-45.6 64.5-11.1-23.4 17.7-37.2c2.4-5.1-1.3-11-6.899-11h-35.4c-5.6 0-9.399 5.9-6.899 11l17.699 37.2-10.899 23-44.4-63.9c-3.1-4.5-8.3-7.3-13.8-7.3h-32.5c-15.4 0-27.8 12.5-27.8 27.8v7.1c28.1 16.7 54 36.9 77.399 60.3a422.48 422.48 0 0 1 19.5 20.9c4.4 5.1 8.801 10.4 12.9 15.7 19.4 24.9 35.8 51.9 48.8 80.8h113.7V224.8c0-15.4-12.5-27.8-27.8-27.8H896.28zM729.181 89.6c0 49.4 40.2 89.6 89.6 89.6 49.4 0 89.601-40.2 89.601-89.6 0-49.4-40.2-89.6-89.601-89.6-49.4 0-89.6 40.2-89.6 89.6zM940.28 875.2 817.381 781c-16.101 26.2-35.301 50.399-57.301 72.399-1.8 1.801-3.699 3.601-5.6 5.4l124.9 95.7c9.1 7 19.8 10.3 30.399 10.3 15 0 29.9-6.7 39.7-19.6 16.801-21.8 12.702-53.199-9.199-69.999zM616.08 571c0-15.4-12.5-27.8-27.8-27.8h-30.899c-5.5 0-10.601 2.6-13.7 7.1l-45.601 64.5-11.1-23.4 17.7-37.199c2.399-5.101-1.3-11-6.9-11h-35.399c-5.601 0-9.4 5.899-6.9 11l17.7 37.199-10.9 23-44.3-63.899c-3.1-4.5-8.3-7.3-13.8-7.3h-32.5c-15.4 0-27.8 12.5-27.8 27.8V755.9h272.3V571h-.101zM479.98 525.5c49.4 0 89.6-40.2 89.6-89.601 0-49.399-40.199-89.6-89.6-89.6s-89.6 40.2-89.6 89.6c.001 49.401 40.2 89.601 89.6 89.601z"
     id="path2"
     style="stroke:#ea5455;stroke-opacity:1;fill:#ea5455;fill-opacity:1" /><path
     d="m 334.78,915.399 c 45.9,19.4 94.601,29.2 144.7,29.2 50.2,0 98.9,-9.8 144.7,-29.2 40.899,-17.3 77.899,-41.5 110.2,-71.899 2.699,-2.5 5.399,-5.101 8,-7.7 21.199,-21.2 39.6,-44.7 55,-70 9.3,-15.5 17.6,-31.5 24.6,-48.2 19.4,-45.899 29.2,-94.6 29.2,-144.7 0,-50.1 -9.8,-98.899 -29.2,-144.699 -2.6,-6.2 -5.4,-12.4 -8.4,-18.4 -18,-36.9 -41.899,-70.4 -71.3,-99.8 -18.3,-18.3 -38.3,-34.5 -59.7,-48.5 -18.5,-12.1 -38,-22.5 -58.5,-31.2 -45.899,-19.4 -94.6,-29.2 -144.699,-29.2 -50.2,0 -98.9,9.8 -144.7,29.2 -20.101,8.5 -39.3,18.7 -57.5,30.5 -3.33788,2.1589 -6.64059,4.37172 -9.90741,6.63811 -18.06915,12.53559 -35.0405,26.7098 -50.79259,42.46189 -29.3,29.3 -53.2,62.8 -71.3,99.8 -2.9,6 -5.8,12.199 -8.4,18.399 -19.4,45.9 -29.2,94.601 -29.2,144.7 0,50.099 9.8,98.9 29.2,144.7 18.7,44.3 45.5,84 79.7,118.2 34.2,34.1 73.999,60.9 118.299,79.699 z"
     id="path4"
     style="fill:#000000;fill-opacity:0;stroke:#ea5455;stroke-width:35.7;stroke-miterlimit:4;stroke-dasharray:none;stroke-opacity:1"
     sodipodi:nodetypes="cscccccscccccsccssccsccc" /></svg>
