<svg xmlns="http://www.w3.org/2000/svg" xmlns:xlink="http://www.w3.org/1999/xlink" width="1200" zoomAndPan="magnify" viewBox="0 0 900 374.999991" height="500" preserveAspectRatio="xMidYMid meet" version="1.0"><path fill="#488eff" d="M 479.875 275.28125 L 509.171875 229.941406 L 538.992188 275.28125 L 571.078125 275.28125 L 525.914062 209.539062 L 567.59375 148.328125 L 537.074219 148.328125 L 510.394531 190.878906 L 484.410156 148.328125 L 451.625 148.328125 L 493.304688 210.410156 L 448.660156 275.28125 Z M 622.699219 275.28125 L 622.699219 198.550781 L 699.953125 198.550781 L 699.953125 172.742188 L 622.699219 172.742188 L 622.699219 125.308594 L 714.601562 125.308594 L 714.601562 99.5 L 593.925781 99.5 L 593.925781 275.28125 Z M 741.109375 275.28125 L 770.40625 229.941406 L 800.226562 275.28125 L 832.3125 275.28125 L 787.144531 209.539062 L 828.824219 148.328125 L 798.308594 148.328125 L 771.625 190.878906 L 745.640625 148.328125 L 712.855469 148.328125 L 754.535156 210.410156 L 709.890625 275.28125 Z M 741.109375 275.28125 " fill-opacity="1" fill-rule="nonzero"/><path fill="#488eff" d="M 400.742188 143.925781 L 315.019531 58.199219 C 314.382812 57.566406 313.671875 57.042969 312.878906 56.621094 C 312.089844 56.203125 311.257812 55.90625 310.378906 55.730469 C 309.503906 55.554688 308.617188 55.511719 307.726562 55.597656 C 306.835938 55.679688 305.976562 55.894531 305.148438 56.230469 C 304.320312 56.574219 303.5625 57.03125 302.871094 57.597656 C 302.175781 58.167969 301.582031 58.824219 301.085938 59.570312 C 300.589844 60.3125 300.210938 61.113281 299.949219 61.972656 C 299.691406 62.828125 299.5625 63.707031 299.5625 64.601562 L 299.5625 104.199219 L 234.777344 104.199219 C 234.191406 104.210938 233.613281 104.28125 233.039062 104.40625 C 232.464844 104.53125 231.910156 104.707031 231.371094 104.941406 C 230.832031 105.175781 230.320312 105.457031 229.835938 105.789062 C 229.351562 106.121094 228.90625 106.496094 228.496094 106.914062 C 228.085938 107.335938 227.71875 107.789062 227.394531 108.277344 C 227.074219 108.769531 226.800781 109.285156 226.578125 109.828125 C 226.359375 110.371094 226.191406 110.933594 226.078125 111.507812 C 225.964844 112.082031 225.90625 112.664062 225.90625 113.25 C 225.90625 113.839844 225.964844 114.417969 226.078125 114.996094 C 226.191406 115.570312 226.359375 116.132812 226.578125 116.675781 C 226.800781 117.21875 227.074219 117.734375 227.394531 118.222656 C 227.71875 118.714844 228.085938 119.167969 228.496094 119.589844 C 228.90625 120.007812 229.351562 120.382812 229.835938 120.714844 C 230.320312 121.046875 230.832031 121.328125 231.371094 121.5625 C 231.910156 121.796875 232.464844 121.972656 233.039062 122.097656 C 233.613281 122.222656 234.191406 122.289062 234.777344 122.300781 L 308.617188 122.300781 C 309.210938 122.300781 309.800781 122.242188 310.382812 122.128906 C 310.96875 122.011719 311.53125 121.839844 312.082031 121.613281 C 312.632812 121.386719 313.152344 121.105469 313.648438 120.777344 C 314.140625 120.445312 314.597656 120.070312 315.019531 119.648438 C 315.4375 119.230469 315.8125 118.773438 316.144531 118.277344 C 316.472656 117.785156 316.753906 117.261719 316.980469 116.714844 C 317.207031 116.164062 317.378906 115.597656 317.496094 115.015625 C 317.613281 114.433594 317.671875 113.84375 317.671875 113.25 L 317.671875 86.453125 L 381.539062 150.328125 L 317.671875 214.191406 L 317.671875 187.390625 C 317.671875 186.796875 317.613281 186.207031 317.496094 185.625 C 317.378906 185.042969 317.207031 184.476562 316.980469 183.925781 C 316.753906 183.378906 316.472656 182.855469 316.144531 182.363281 C 315.8125 181.867188 315.4375 181.410156 315.019531 180.988281 C 314.597656 180.570312 314.140625 180.195312 313.648438 179.863281 C 313.152344 179.535156 312.632812 179.253906 312.082031 179.027344 C 311.53125 178.800781 310.96875 178.628906 310.382812 178.511719 C 309.800781 178.394531 309.210938 178.339844 308.617188 178.335938 L 169.984375 178.335938 L 169.984375 138.726562 C 169.984375 135.0625 167.78125 131.765625 164.398438 130.359375 C 163.570312 130.019531 162.710938 129.804688 161.820312 129.71875 C 160.929688 129.632812 160.046875 129.675781 159.167969 129.851562 C 158.289062 130.027344 157.457031 130.324219 156.667969 130.746094 C 155.878906 131.167969 155.164062 131.695312 154.53125 132.328125 L 68.816406 218.046875 C 68.398438 218.464844 68.023438 218.921875 67.691406 219.417969 C 67.359375 219.910156 67.082031 220.433594 66.855469 220.980469 C 66.625 221.53125 66.453125 222.09375 66.339844 222.679688 C 66.222656 223.261719 66.164062 223.851562 66.164062 224.445312 C 66.164062 225.039062 66.222656 225.625 66.339844 226.210938 C 66.453125 226.792969 66.625 227.359375 66.855469 227.90625 C 67.082031 228.457031 67.359375 228.976562 67.691406 229.472656 C 68.023438 229.964844 68.398438 230.421875 68.816406 230.84375 L 154.535156 316.570312 C 155.167969 317.207031 155.878906 317.734375 156.667969 318.15625 C 157.460938 318.578125 158.292969 318.878906 159.171875 319.050781 C 160.050781 319.226562 160.933594 319.269531 161.828125 319.183594 C 162.71875 319.097656 163.578125 318.878906 164.40625 318.539062 C 165.230469 318.195312 165.992188 317.738281 166.683594 317.171875 C 167.375 316.601562 167.96875 315.945312 168.46875 315.199219 C 168.964844 314.457031 169.34375 313.652344 169.601562 312.796875 C 169.859375 311.941406 169.988281 311.0625 169.988281 310.167969 L 169.988281 270.566406 L 234.78125 270.566406 C 235.367188 270.546875 235.941406 270.476562 236.511719 270.347656 C 237.082031 270.21875 237.632812 270.039062 238.167969 269.804688 C 238.703125 269.570312 239.210938 269.285156 239.691406 268.953125 C 240.167969 268.617188 240.613281 268.242188 241.019531 267.824219 C 241.425781 267.40625 241.789062 266.953125 242.109375 266.464844 C 242.429688 265.972656 242.699219 265.460938 242.917969 264.917969 C 243.136719 264.378906 243.300781 263.820312 243.414062 263.246094 C 243.527344 262.675781 243.582031 262.097656 243.582031 261.511719 C 243.582031 260.929688 243.527344 260.351562 243.414062 259.777344 C 243.300781 259.203125 243.136719 258.648438 242.917969 258.105469 C 242.699219 257.566406 242.429688 257.050781 242.109375 256.5625 C 241.789062 256.074219 241.425781 255.617188 241.019531 255.199219 C 240.613281 254.78125 240.167969 254.40625 239.691406 254.074219 C 239.210938 253.738281 238.703125 253.457031 238.167969 253.222656 C 237.632812 252.984375 237.082031 252.804688 236.511719 252.675781 C 235.941406 252.546875 235.367188 252.476562 234.78125 252.460938 L 160.921875 252.460938 C 160.328125 252.460938 159.738281 252.519531 159.15625 252.632812 C 158.574219 252.75 158.007812 252.921875 157.457031 253.148438 C 156.910156 253.378906 156.386719 253.65625 155.894531 253.988281 C 155.398438 254.316406 154.941406 254.691406 154.523438 255.113281 C 154.101562 255.53125 153.726562 255.988281 153.394531 256.484375 C 153.066406 256.976562 152.785156 257.5 152.558594 258.046875 C 152.332031 258.597656 152.160156 259.164062 152.042969 259.746094 C 151.925781 260.328125 151.871094 260.917969 151.871094 261.511719 L 151.871094 261.648438 C 151.871094 262.738281 151.878906 275.945312 151.878906 288.324219 L 88.015625 224.445312 L 151.882812 160.582031 C 151.882812 172.753906 151.875 185.742188 151.871094 187.191406 C 151.859375 187.792969 151.90625 188.390625 152.011719 188.984375 C 152.121094 189.578125 152.285156 190.15625 152.507812 190.714844 C 152.726562 191.277344 153.003906 191.808594 153.332031 192.3125 C 153.660156 192.820312 154.035156 193.289062 154.453125 193.71875 C 154.875 194.148438 155.335938 194.535156 155.835938 194.875 C 156.332031 195.210938 156.859375 195.5 157.414062 195.734375 C 157.972656 195.96875 158.542969 196.144531 159.136719 196.261719 C 159.726562 196.382812 160.324219 196.441406 160.925781 196.441406 L 299.566406 196.441406 L 299.566406 236.039062 C 299.5625 236.933594 299.691406 237.8125 299.949219 238.671875 C 300.207031 239.527344 300.585938 240.332031 301.082031 241.078125 C 301.582031 241.824219 302.175781 242.480469 302.867188 243.050781 C 303.558594 243.617188 304.320312 244.074219 305.148438 244.417969 C 305.976562 244.761719 306.835938 244.976562 307.730469 245.0625 C 308.621094 245.152344 309.507812 245.105469 310.386719 244.929688 C 311.265625 244.753906 312.097656 244.453125 312.890625 244.03125 C 313.679688 243.605469 314.390625 243.078125 315.023438 242.441406 L 400.746094 156.722656 C 402.445312 155.03125 403.390625 152.730469 403.390625 150.324219 C 403.390625 147.917969 402.441406 145.621094 400.742188 143.925781 Z M 400.742188 143.925781 " fill-opacity="1" fill-rule="nonzero"/></svg>