<?xml version="1.0" encoding="utf-8"?>
<svg id="master-artboard" xmlns="http://www.w3.org/2000/svg" viewBox="0 0 500 500" width="500px" height="500px"><rect id="ee-background" x="0" y="0" width="500" height="500" style="fill: white; fill-opacity: 0; pointer-events: none;"/><g transform="matrix(1.0206698179244995, 0, 0, 1.0206698179244995, -73.09008026123047, 93.6433034113301)"><g transform="matrix(0.9999999999999999, 0, 0, 0.9999999999999999, -2.842170943040401e-14, -2.842170943040401e-14)"><g transform="matrix(2.1069562435150146, 0, 0, 2.1069562435150146, -79.59239959716797, -44.714111328125014)"><g id="g-1" transform="matrix(1, 0, 0, 1, 74.09621554628147, -0.8202533086304218)">
	
<path d="M 180.46383666992188 43.45194625854492 L 184.82980346679688 16.46236801147461" style="fill: rgb(0, 12, 131); fill-opacity: 1; stroke: rgb(238, 171, 255); stroke-opacity: 1; stroke-width: 0; paint-order: stroke;"/><g id="g-2">
		<path class="st0" d="M58,49h100v100H58V49z" style="fill: rgb(0, 12, 131); stroke: rgb(238, 171, 255); stroke-width: 0;"/>
	</g></g></g><g transform="matrix(1.1914399862289429, 0, 0, 1.1914399862289429, -107.13747406005861, 69.75069427490232)"><g data-v-423bf9ae="" id="17f542df-82bc-4828-b346-7b022c966758" transform="matrix(4.776309967041016, 0, 0, 4.776309967041016, 268.6944756533056, 0.8120194330944059)" stroke="none" fill="white"><path d="M31 1v30H1V1h30m1-1H0v32h32V0z"/><path d="M24.12 1v24.608L7.88 9.368V1h16.24m1-1H6.88v9.783l18.24 18.239V0z"/></g></g></g></g></svg>