<?xml version="1.0" standalone="no"?>
<!DOCTYPE svg PUBLIC "-//W3C//DTD SVG 20010904//EN"
 "http://www.w3.org/TR/2001/REC-SVG-20010904/DTD/svg10.dtd">
<svg version="1.0" xmlns="http://www.w3.org/2000/svg"
 width="840.000000pt" height="859.000000pt" viewBox="0 0 840.000000 859.000000"
 preserveAspectRatio="xMidYMid meet">
<metadata>
Created by potrace 1.16, written by Peter Selinger 2001-2019
</metadata>
<g transform="translate(0.000000,859.000000) scale(0.100000,-0.100000)"
fill="#000000" stroke="none">
<path d="M4010 8554 c-437 -41 -802 -188 -1135 -457 -177 -143 -389 -384 -505
-572 -311 -506 -384 -1195 -190 -1785 47 -142 167 -380 256 -507 370 -525 889
-845 1492 -918 171 -21 480 -16 632 10 462 79 840 280 1176 627 286 295 466
627 548 1008 63 296 62 660 -3 956 -132 603 -580 1160 -1156 1439 -292 142
-596 207 -939 203 -77 0 -157 -3 -176 -4z"/>
<path d="M1980 4639 c-231 -29 -470 -117 -665 -243 -342 -223 -634 -669 -799
-1224 -74 -245 -146 -612 -181 -917 -42 -368 -46 -952 -7 -1136 61 -289 178
-507 373 -694 246 -236 539 -356 935 -385 188 -13 4949 -13 5137 0 397 29 704
158 948 400 268 266 389 602 389 1079 0 878 -169 1705 -455 2222 -159 288
-337 498 -538 637 -245 169 -576 272 -872 272 -105 0 -121 -8 -462 -228 -374
-241 -461 -287 -723 -380 -633 -226 -1194 -213 -1832 44 -174 70 -309 145
-600 332 -362 233 -361 232 -484 231 -55 -1 -128 -5 -164 -10z"/>
</g>
</svg>
